# xmcd
#
# Track frame offsets:
#	150
#	13950
#	31425
#	46500
#	70050
#	86475
#	101625
#	122025
#	139275
#	159450
#	184275
#	203325
#	220350
#	244800
#	264300
#	280650
#
# Disc length: 4031 seconds
#
# Revision: 0
# Processed by: cddbd v1.5.2PL0 Copyright (c) Steve Scherf et al.
# Submitted via: EZCDAudioConverter 1.2.3.1
#
DISCID=df0fbd10
DTITLE=鑑聽寶典
DYEAR=1900
DGENRE=Pop
TTITLE0=太極 - 留住我吧
TTITLE1=呂方 - 聽不到的說話
TTITLE2=杜麗莎 - 仍然記得嗰一次
TTITLE3=周啟生 - Anna
TTITLE4=林子祥 - 千億個夜晚
TTITLE5=林姍姍 - 戀愛預告
TTITLE6=林憶蓮 and 王傑 - 還有
TTITLE7=夏韶聲 - 永不放棄
TTITLE8=張國榮 - 風繼續吹
TTITLE9=梁朝偉 - 朦朧夜雨裡
TTITLE10=梅艷芳 - 赤的疑惑
TTITLE11=陳百強 - 幾分鐘的約會
TTITLE12=陳潔靈 - 無言地等
TTITLE13=葉蒨文 - 零時十分
TTITLE14=劉德華 - 只知道此刻愛你
TTITLE15=羅文 - 幾許風雨
EXTD=
EXTT0=
EXTT1=
EXTT2=
EXTT3=
EXTT4=
EXTT5=
EXTT6=
EXTT7=
EXTT8=
EXTT9=
EXTT10=
EXTT11=
EXTT12=
EXTT13=
EXTT14=
EXTT15=
PLAYORDER=
